# AST/ASF file generated using VICON BodyLanguage
# -----------------------------------------------
:version 1.10
:name VICON
:units
  mass 1.0
  length 0.45
  angle deg
:documentation
   .ast/.asf automatically generated from VICON data using
   VICON BodyBuilder and BodyLanguage model FoxedUp or BRILLIANT.MOD
:root
   order TX TY TZ RX RY RZ
   axis XYZ
   position 0 0 0  
   orientation 0 0 0 
:bonedata
  begin
     id 1 
     name lhipjoint
     direction 0.537252 -0.787203 0.302774 
     length 2.29576 
     axis 0 0 0  XYZ
  end
  begin
     id 2 
     name lfemur
     direction 0.34202 -0.939693 0  
     length 7.31114  
     axis 0 0 20  XYZ
    dof rx ry rz
    limits (-160.0 20.0)
           (-70.0 70.0)
           (-60.0 70.0)
  end
  begin
     id 3 
     name ltibia
     direction 0.34202 -0.939693 0   
     length 8.36008   
     axis 0 0 20   XYZ
    dof rx
    limits (-10.0 170.0)
  end
  begin
     id 4 
     name lfoot
     direction 0.0969116 -0.266263 0.959016   
     length 2.16704   
     axis -90 7.62852e-016 20   XYZ
    dof rx rz
    limits (-45.0 90.0)
           (-70.0 20.0)
  end
  begin
     id 5 
     name ltoes
     direction 1.53563e-011 -4.21779e-011 1   
     length 1.08338   
     axis -90 7.62852e-016 20   XYZ
    dof rx
    limits (-90.0 20.0)
  end
  begin
     id 6 
     name rhipjoint
     direction -0.588228 -0.754791 0.290308   
     length 2.39434  
     axis 0 0 0  XYZ 
  end
  begin
     id 7 
     name rfemur
     direction -0.34202 -0.939693 0   
     length 7.45207   
     axis 0 0 -20   XYZ
    dof rx ry rz
    limits (-160.0 20.0)
           (-70.0 70.0)
           (-70.0 60.0)
  end
  begin
     id 8 
     name rtibia
     direction -0.34202 -0.939693 0   
     length 8.03565   
     axis 0 0 -20   XYZ
    dof rx
    limits (-10.0 170.0)
 end
 begin
     id 9 
     name rfoot
     direction -0.107009 -0.294004 0.949795   
     length 2.11509  
     axis -90 -7.62852e-016 -20   XYZ
    dof rx rz
    limits (-45.0 90.0)
           (-20.0 70.0)
  end
  begin
     id 10 
     name rtoes
     direction -1.53533e-011 -4.22004e-011 1   
     length 1.05493   
     axis -90 -7.62852e-016 -20   XYZ
    dof rx
    limits (-90.0 20.0)
  end
  begin
     id 11 
     name lowerback
     direction -0.0115208 0.997969 -0.0626515   
     length 2.03153   
     axis 0 0 0   XYZ
    dof rx ry rz
    limits (-20.0 45.0)
           (-30.0 30.0)
           (-30.0 30.0)
  end
  begin
     id 12 
     name upperback
     direction -0.00423475 0.999974 -0.00583614   
     length 2.03619   
     axis 0 0 0   XYZ
    dof rx ry rz
    limits (-20.0 45.0)
           (-30.0 30.0)
           (-30.0 30.0)
  end
  begin
     id 13 
     name thorax
     direction 0.00289429 0.999728 0.0231573   
     length 2.03921   
     axis 0 0 0   XYZ
    dof rx ry rz
    limits (-20.0 45.0)
           (-30.0 30.0)
           (-30.0 30.0)
  end
  begin
     id 14 
     name lowerneck
     direction 0.0188995 0.987777 0.154721   
     length 1.78836   
     axis 0 0 0   XYZ
    dof rx ry rz
    limits (-20.0 45.0)
           (-30.0 30.0)
           (-30.0 30.0)
  end
  begin
     id 15 
     name upperneck
     direction -0.00612612 0.992995 -0.118   
     length 1.81789   
     axis 0 0 0   XYZ
    dof rx ry rz
    limits (-20.0 45.0)
           (-30.0 30.0)
           (-30.0 30.0)
  end
  begin
     id 16
     name head
     direction -0.00420226 0.998397 -0.0564482  
     length 1.82234  
     axis 0 0 0   XYZ
    dof rx ry rz
    limits (-20.0 45.0)
           (-30.0 30.0)
           (-30.0 30.0)
  end
  begin
     id 17 
     name lclavicle
     direction 0.916488 0.396539 0.0529676  
     length 3.51732  
     axis 0 0 0   XYZ
    dof ry rz
    limits (-20.0 10.0)
           (0.0 20.0)
  end
  begin
     id 18 
     name lhumerus
     direction 1 -4.4896e-011 8.36962e-028   
     length 5.45077   
     axis 180 -30 -90   XYZ
    dof rx ry rz
    limits (-60.0 90.0)
           (-90.0 90.0)
           (-90.0 90.0)
  end
  begin
     id 19
     name lradius
     direction 1 -4.48962e-011 3.01407e-027   
     length 3.05488   
     axis 180 -30 -90   XYZ
    dof rx
    limits (-10.0 170.0)
  end
  begin
     id 20
     name lwrist
     direction 1 -4.49002e-011 4.72961e-027   
     length 1.52744   
     axis -2.72261e-015 90 90   XYZ
    dof ry
    limits (-180.0 0.0)
 end
  begin
     id 21 
     name lhand
     direction 1 -4.4899e-011 9.45681e-027   
     length 0.638818   
     axis -6.0311e-015 90 90   XYZ
    dof rx rz
    limits (-90.0 90.0)
           (-45.0 45.0)
  end
  begin
     id 22 
     name lfingers
     direction 1 -4.48871e-011 1.88632e-026   
     length 0.515032   
     axis -1.20625e-014 90 90   XYZ
    dof rx
    limits (0.0 90.0)
  end
  begin
     id 23
     name lthumb
     direction 0.707107 -6.34964e-011 0.707107   
     length 0.739485   
     axis -90 45 6.32835e-014   XYZ
    dof rx rz
    limits (-45.0 45.0)
           (-45.0 45.0)
  end
  begin
     id 24 
     name rclavicle
     direction -0.949427 0.303202 0.0815894   
     length 3.76167  
     axis 0 0 0   XYZ 
    dof ry rz
    limits (-10.0 20.0)
           (-20.0 0.0)
  end
  begin
     id 25 
     name rhumerus
     direction -1 -4.48971e-011 -6.43969e-018  
     length 4.88702   
     axis 180 30 90   XYZ
    dof rx ry rz
    limits (-90.0 60.0)
           (-90.0 90.0)
           (-90.0 90.0)
  end
  begin
     id 26 
     name rradius
     direction -1 -4.48987e-011 5.46662e-027   
     length 3.22603   
     axis 180 30 90   XYZ
    dof rx
    limits (-10.0 170.0)
  end
  begin
     id 27 
     name rwrist
     direction -1 -4.48956e-011 4.72476e-027   
     length 1.61302   
     axis -2.72261e-015 -90 -90   XYZ
    dof ry
    limits (-180.0 0.0)
  end
  begin
     id 28
     name rhand
     direction -1 -4.4889e-011 9.43571e-027   
     length 0.716293   
     axis -6.0311e-015 -90 -90   XYZ
    dof rx rz
    limits (-90.0 90.0)
           (-45.0 45.0)
  end
  begin
     id 29
     name rfingers
     direction -1 -4.48887e-011 1.88701e-026   
     length 0.577494   
     axis -1.20625e-014 -90 -90   XYZ
    dof rx
    limits (0.0 90.0)
  end
  begin
     id 30
     name rthumb
     direction -0.707107 -6.34825e-011 0.707107   
     length 0.829169   
     axis -90 -45 -6.32835e-014   XYZ
    dof rx rz
    limits (-45.0 45.0)
           (-45.0 45.0)
  end
:hierarchy
  begin
    root lhipjoint rhipjoint lowerback
    lhipjoint lfemur
    lfemur ltibia
    ltibia lfoot
    lfoot ltoes
    rhipjoint rfemur
    rfemur rtibia
    rtibia rfoot
    rfoot rtoes
    lowerback upperback
    upperback thorax
    thorax lowerneck lclavicle rclavicle
    lowerneck upperneck
    upperneck head
    lclavicle lhumerus
    lhumerus lradius
    lradius lwrist
    lwrist lhand lthumb
    lhand lfingers
    rclavicle rhumerus
    rhumerus rradius
    rradius rwrist
    rwrist rhand rthumb
    rhand rfingers
  end

#!OML:ASF F:\VICON\USERDATA\INSTALL\rory3\rory3.ASF
:FULLY-SPECIFIED
:DEGREES
1896
root 0.954324 18.5301 -0.431373 52.8602 75.8739 35.1668
lowerback -0.218177 -1.1498 5.81444
upperback -0.217836 -1.46231 3.75264
thorax -0.152173 -0.704603 0.600481
lowerneck -6.36811 -20.1244 -11.236
upperneck 16.3968 -28.6842 14.5349
head 10.0155 -13.0287 2.74774
rclavicle 9.54166e-015 -6.04305e-014
rhumerus 24.0062 -50.1519 -43.7961
rradius 53.738
rwrist -31.3911
rhand -32.6573 3.72106
rfingers 7.12502
rthumb -5.88339 -26.1773
lclavicle 9.54166e-015 -6.04305e-014
lhumerus -83.9821 -35.4375 108.516
lradius 86.4888
lwrist -10.4473
lhand -25.2373 6.13594
lfingers 7.12502
lthumb 1.28243 36.1118
rfemur -22.0267 1.40694 3.03578
rtibia 11.4767
rfoot -7.37554 6.22662
rtoes -12.8923
lfemur -19.391 14.4067 -32.8919
ltibia 10.8692
lfoot -9.53236 -3.65031
ltoes -20.6081
1897
root 0.944373 18.5275 -0.446331 53.514 75.7551 35.7605
lowerback -0.100517 -1.12512 5.98299
upperback -0.196435 -1.41678 3.82377
thorax -0.197307 -0.681239 0.582429
lowerneck -6.25503 -20.1221 -11.2559
upperneck 16.4022 -28.6794 14.5536
head 10.0034 -13.0305 2.76813
rclavicle -3.89618e-014 -3.18055e-015
rhumerus 24.0249 -50.1719 -44.0415
rradius 53.7112
rwrist -31.426
rhand -32.6667 3.76479
rfingers 7.12502
rthumb -5.89243 -26.1333
lclavicle -3.89618e-014 -3.18055e-015
lhumerus -83.9665 -35.4719 108.703
lradius 86.326
lwrist -10.1612
lhand -25.3564 6.02735
lfingers 7.12502
lthumb 1.16731 36.0039
rfemur -22.2553 1.55941 2.701
rtibia 11.7315
rfoot -7.56114 6.00368
rtoes -12.9855
lfemur -19.4748 14.6297 -33.2501
ltibia 10.7343
lfoot -9.36415 -3.95621
ltoes -20.6171
1898
root 0.936268 18.5264 -0.46166 53.8941 75.6635 36.1492
lowerback 0.0809946 -1.1219 6.20133
upperback -0.113402 -1.39624 3.91793
thorax -0.216197 -0.66855 0.561172
lowerneck -6.24523 -20.1145 -11.2424
upperneck 16.3586 -28.6492 14.523
head 9.97461 -13.0214 2.76626
rclavicle -3.49861e-014 1.11319e-013
rhumerus 24.0659 -50.1248 -44.3182
rradius 53.7498
rwrist -31.416
rhand -32.7372 3.83546
rfingers 7.12502
rthumb -5.96046 -26.0607
lclavicle -3.49861e-014 1.11319e-013
lhumerus -83.9075 -35.4713 108.741
lradius 86.2904
lwrist -10.04
lhand -25.5458 5.88791
lfingers 7.12502
lthumb 0.984433 35.8654
rfemur -22.3941 1.74762 2.43816
rtibia 11.959
rfoot -7.77031 5.73809
rtoes -13.5323
lfemur -19.4709 14.8148 -33.4985
ltibia 10.6187
lfoot -9.26232 -4.20258
ltoes -20.8202
1899
root 0.928893 18.524 -0.479137 54.443 75.5735 36.6673
lowerback 0.177768 -1.10116 6.44735
upperback -0.00997957 -1.3617 3.98499
thorax -0.167071 -0.647225 0.494661
lowerneck -6.30863 -20.1272 -11.226
upperneck 16.353 -28.6574 14.5263
head 9.98306 -13.0195 2.75743
rclavicle -8.74653e-015 -7.31528e-014
rhumerus 23.9824 -50.0982 -44.4903
rradius 53.8111
rwrist -31.5173
rhand -32.9024 3.95544
rfingers 7.12502
rthumb -6.12002 -25.9362
lclavicle -8.74653e-015 -7.31528e-014
lhumerus -83.7593 -35.5701 108.69
lradius 86.2382
lwrist -10.1374
lhand -25.6833 5.91191
lfingers 7.12502
lthumb 0.851665 35.89
rfemur -22.5512 1.70926 2.19521
rtibia 12.1386
rfoot -7.90375 5.59595
rtoes -14.139
lfemur -19.5488 15.1016 -33.8202
ltibia 10.5419
lfoot -9.1216 -4.61256
ltoes -20.6678
1900
root 0.918982 18.5197 -0.497419 55.0455 75.4373 37.2163
lowerback 0.295757 -1.06593 6.69176
upperback 0.0821525 -1.30599 4.00878
thorax -0.141262 -0.616329 0.384939
lowerneck -6.44298 -20.1532 -11.0897
upperneck 16.3768 -28.6814 14.4534
head 9.98494 -13.0195 2.70347
rclavicle 3.10104e-014 -1.27222e-013
rhumerus 23.8768 -50.1065 -44.625
rradius 53.7872
rwrist -31.5827
rhand -32.7766 3.6348
rfingers 7.12502
rthumb -5.99857 -26.2603
lclavicle 3.10104e-014 -1.27222e-013
lhumerus -83.6115 -35.7041 108.646
lradius 86.1844
lwrist -10.2637
lhand -25.8369 5.89549
lfingers 7.12502
lthumb 0.703258 35.8741
rfemur -22.7684 1.50725 1.94477
rtibia 12.3303
rfoot -7.90667 5.73267
rtoes -14.3477
lfemur -19.632 15.2746 -34.1619
ltibia 10.4358
lfoot -8.99038 -4.94504
ltoes -20.0084
1901
root 0.910073 18.5189 -0.513983 55.4292 75.3485 37.5608
lowerback 0.447962 -1.0475 6.97096
upperback 0.152979 -1.26606 4.04906
thorax -0.157364 -0.594106 0.274038
lowerneck -6.46488 -20.1288 -11.041
upperneck 16.3488 -28.6576 14.5366
head 9.98314 -12.9977 2.72692
rclavicle -3.18055e-015 6.36111e-015
rhumerus 23.7443 -50.0724 -44.8171
rradius 53.7982
rwrist -31.5888
rhand -32.2845 3.2704
rfingers 7.12502
rthumb -5.52339 -26.6376
lclavicle -3.18055e-015 6.36111e-015
lhumerus -83.5424 -35.7434 108.622
lradius 86.0997
lwrist -10.4707
lhand -25.8335 5.74095
lfingers 7.12502
lthumb 0.706592 35.7195
rfemur -22.9445 1.47237 1.7409
rtibia 12.5018
rfoot -7.99486 5.71685
rtoes -14.4617
lfemur -19.7046 15.4111 -34.4084
ltibia 10.3581
lfoot -8.93084 -5.20343
ltoes -19.7004
1902
root 0.901609 18.5169 -0.52717 55.8223 75.232 37.9407
lowerback 0.565345 -1.04122 7.12325
upperback 0.263582 -1.24724 4.16377
thorax -0.109121 -0.579424 0.30909
lowerneck -6.4905 -20.0924 -11.111
upperneck 16.2734 -28.5923 14.5954
head 9.97306 -12.9689 2.76343
rclavicle 4.13472e-014 -2.54444e-014
rhumerus 23.6541 -49.9261 -44.9986
rradius 53.8501
rwrist -31.6073
rhand -32.2297 3.34333
rfingers 7.12502
rthumb -5.47049 -26.5661
lclavicle 4.13472e-014 -2.54444e-014
lhumerus -83.323 -35.7096 108.597
lradius 85.9657
lwrist -10.6424
lhand -25.6787 5.63301
lfingers 7.12502
lthumb 0.856034 35.611
rfemur -23.0941 1.65025 1.4595
rtibia 12.6809
rfoot -8.1623 5.48816
rtoes -14.8845
lfemur -19.7386 15.5069 -34.6581
ltibia 10.2706
lfoot -8.87848 -5.3859
ltoes -19.4961
1903
root 0.892158 18.5147 -0.540225 55.9739 75.1072 38.0847
lowerback 0.761772 -1.01336 7.30834
upperback 0.330083 -1.18686 4.27838
thorax -0.149563 -0.546757 0.327466
lowerneck -6.49541 -20.0783 -11.0889
upperneck 16.2349 -28.5448 14.5208
head 9.93732 -12.9543 2.74966
rclavicle 5.48646e-014 7.95139e-014
rhumerus 23.419 -49.6889 -45.0717
rradius 53.9293
rwrist -31.7119
rhand -32.5119 3.80213
rfingers 7.12502
rthumb -5.74294 -26.1
lclavicle 5.48646e-014 7.95139e-014
lhumerus -83.235 -35.7547 108.662
lradius 85.8766
lwrist -10.6279
lhand -25.4815 5.62583
lfingers 7.12502
lthumb 1.04653 35.603
rfemur -23.2397 1.79198 1.24054
rtibia 12.8287
rfoot -8.23246 5.38276
rtoes -15.1732
lfemur -19.7893 15.6928 -34.878
ltibia 10.2028
lfoot -8.77916 -5.62117
ltoes -19.1901
1904
root 0.880476 18.5116 -0.555542 56.4165 74.964 38.5566
lowerback 1.02456 -0.971013 7.46732
upperback 0.377797 -1.09987 4.33356
thorax -0.245888 -0.50345 0.299646
lowerneck -6.35967 -20.1012 -11.0492
upperneck 16.1027 -28.5609 14.5311
head 9.86452 -12.9745 2.76365
rclavicle -7.95139e-015 4.45278e-014
rhumerus 23.1582 -49.5941 -45.1388
rradius 53.9769
rwrist -31.8826
rhand -32.7445 3.98536
rfingers 7.12502
rthumb -5.96753 -25.9106
lclavicle -7.95139e-015 4.45278e-014
lhumerus -83.2917 -35.9285 108.855
lradius 85.7995
lwrist -10.4785
lhand -25.52 5.61519
lfingers 7.12502
lthumb 1.0093 35.5925
rfemur -23.3491 1.80621 0.956854
rtibia 12.9792
rfoot -8.26253 5.38063
rtoes -15.1177
lfemur -19.8035 15.8938 -35.1875
ltibia 10.1179
lfoot -8.63688 -5.9185
ltoes -19.282
1905
root 0.869736 18.5089 -0.568444 56.9439 74.9457 39.117
lowerback 1.24406 -1.00546 7.68075
upperback 0.458554 -1.1184 4.43297
thorax -0.289017 -0.509794 0.288005
lowerneck -6.45508 -20.088 -11.0441
upperneck 16.1699 -28.5316 14.4863
head 9.89264 -12.9535 2.7441
rclavicle -3.97569e-015 -3.18055e-014
rhumerus 23.0162 -49.3963 -45.2668
rradius 53.9625
rwrist -32.1127
rhand -33.0439 3.73034
rfingers 7.12502
rthumb -6.25662 -26.1573
lclavicle -3.97569e-015 -3.18055e-014
lhumerus -83.1988 -35.9003 108.921
lradius 85.6423
lwrist -10.4138
lhand -25.771 5.4266
lfingers 7.12502
lthumb 0.766893 35.405
rfemur -23.3877 1.91476 0.740906
rtibia 13.1006
rfoot -8.42254 5.18155
rtoes -15.3315
lfemur -19.8034 15.9844 -35.3799
ltibia 10.0566
lfoot -8.52405 -6.13181
ltoes -19.3148
1906
root 0.860342 18.5067 -0.578851 57.5979 74.7973 39.7942
lowerback 1.45175 -1.02374 7.7007
upperback 0.499143 -1.11803 4.5076
thorax -0.362819 -0.50946 0.357328
lowerneck -6.451 -20.0405 -11.1601
upperneck 16.2722 -28.4805 14.5798
head 9.95558 -12.9189 2.79092
rclavicle 2.38542e-014 2.8625e-014
rhumerus 22.7336 -49.0777 -45.2692
rradius 53.9661
rwrist -32.402
rhand -33.2545 3.61194
rfingers 7.12502
rthumb -6.45988 -26.2695
lclavicle 2.38542e-014 2.8625e-014
lhumerus -83.2181 -35.8429 109.032
lradius 85.5733
lwrist -10.4659
lhand -25.7619 5.42376
lfingers 7.12502
lthumb 0.775714 35.4021
rfemur -23.453 2.00315 0.404383
rtibia 13.2044
rfoot -8.55364 5.01084
rtoes -15.6162
lfemur -19.7946 15.9394 -35.6395
ltibia 9.99714
lfoot -8.44236 -6.18682
ltoes -19.2302
1907
root 0.853189 18.5047 -0.58875 57.8217 74.6456 40.0085
lowerback 1.58299 -0.99968 7.80877
upperback 0.549397 -1.07014 4.5513
thorax -0.383413 -0.484024 0.343714
lowerneck -6.34337 -19.9769 -11.2085
upperneck 16.2628 -28.4163 14.7389
head 9.96009 -12.8827 2.86761
rclavicle 1.74931e-014 -9.54166e-015
rhumerus 22.4601 -48.8473 -45.3571
rradius 53.9051
rwrist -32.5453
rhand -33.2607 3.396
rfingers 7.12502
rthumb -6.4659 -26.4853
lclavicle 1.74931e-014 -9.54166e-015
lhumerus -83.2825 -35.8597 109.104
lradius 85.561
lwrist -10.5183
lhand -25.6501 5.51713
lfingers 7.12502
lthumb 0.883646 35.495
rfemur -23.5458 2.06696 0.165563
rtibia 13.272
rfoot -8.56958 4.98172
rtoes -15.4923
lfemur -19.8484 15.99 -35.8434
ltibia 9.96857
lfoot -8.3373 -6.25351
ltoes -18.8711
1908
root 0.845106 18.5005 -0.598013 57.8954 74.4722 40.0651
lowerback 1.75012 -0.923089 7.93031
upperback 0.607312 -0.949106 4.5717
thorax -0.41286 -0.422531 0.297242
lowerneck -6.38488 -19.9764 -11.1309
upperneck 16.2943 -28.4263 14.7727
head 9.97442 -12.8738 2.8633
rclavicle -7.95139e-015 4.45278e-014
rhumerus 22.0737 -48.7791 -45.395
rradius 53.8428
rwrist -32.4823
rhand -33.2369 3.13441
rfingers 7.12502
rthumb -6.44293 -26.7476
lclavicle -7.95139e-015 4.45278e-014
lhumerus -83.3016 -35.9765 109.172
lradius 85.5137
lwrist -10.5279
lhand -25.5551 5.34481
lfingers 7.12502
lthumb 0.975473 35.3223
rfemur -23.6593 2.05908 -0.0382044
rtibia 13.3228
rfoot -8.54572 5.10725
rtoes -15.0274
lfemur -19.932 16.0876 -36.039
ltibia 9.9604
lfoot -8.21356 -6.35061
ltoes -18.1898
1909
root 0.835842 18.4984 -0.60299 57.997 74.3138 40.0899
lowerback 1.8897 -0.877935 7.97596
upperback 0.638174 -0.871768 4.61485
thorax -0.455368 -0.383728 0.316605
lowerneck -6.49893 -19.9526 -11.0637
upperneck 16.4506 -28.4208 14.8168
head 10.0475 -12.8441 2.85564
rclavicle 2.38542e-014 6.36111e-015
rhumerus 21.8456 -48.6186 -45.6113
rradius 53.7574
rwrist -32.4248
rhand -33.2399 2.97635
rfingers 7.12502
rthumb -6.4458 -26.9056
lclavicle 2.38542e-014 6.36111e-015
lhumerus -83.2702 -35.9851 109.193
lradius 85.463
lwrist -10.4482
lhand -25.4162 5.11487
lfingers 7.12502
lthumb 1.10956 35.0917
rfemur -23.8319 2.10516 -0.225869
rtibia 13.3718
rfoot -8.48793 5.12872
rtoes -14.4562
lfemur -20.0642 16.1773 -36.2059
ltibia 9.95129
lfoot -8.19364 -6.44356
ltoes -18.2627
